<svg width="48" height="48" viewBox="0 0 48 48" fill="none" xmlns="http://www.w3.org/2000/svg">
<path d="M35.0525 28.668C34.2891 30.4734 33.095 32.0642 31.5747 33.3015C30.0544 34.5388 28.2542 35.3849 26.3314 35.7657C24.4086 36.1465 22.4218 36.0505 20.5447 35.4861C18.6675 34.9217 16.9572 33.9061 15.5633 32.528C14.1694 31.1499 13.1343 29.4513 12.5484 27.5807C11.9626 25.7101 11.844 23.7246 12.2028 21.7975C12.5616 19.8705 13.3871 18.0607 14.6069 16.5264C15.8268 14.9921 17.4039 13.78 19.2005 12.996" stroke="#5C5C5C" stroke-width="3" stroke-linecap="round" stroke-linejoin="round"/>
<path d="M36.0005 24C36.0005 22.4241 35.6901 20.8637 35.087 19.4078C34.484 17.9519 33.6001 16.629 32.4858 15.5147C31.3715 14.4004 30.0486 13.5165 28.5927 12.9134C27.1368 12.3104 25.5764 12 24.0005 12V24H36.0005Z" stroke="#5C5C5C" stroke-width="3" stroke-linecap="round" stroke-linejoin="round"/>
</svg>
