<svg width="60" height="54" viewBox="0 0 60 54" fill="none" xmlns="http://www.w3.org/2000/svg">
<path d="M31.3351 12.4321L43.3351 17.8321C43.8349 18.0556 44.2555 18.4002 44.5497 18.8271C44.8438 19.254 44.9998 19.7463 45.0001 20.2486V33.1141C44.9998 33.6164 44.8438 34.1087 44.5497 34.5356C44.2555 34.9625 43.8349 35.3071 43.3351 35.5306L31.3351 40.9306C30.9183 41.1183 30.4586 41.216 29.9926 41.216C29.5265 41.216 29.0669 41.1183 28.6501 40.9306L16.6501 35.5306C16.1508 35.3042 15.7317 34.9567 15.4402 34.5273C15.1486 34.0979 14.9962 33.6038 15.0001 33.1006V20.2486C15.0004 19.7463 15.1564 19.254 15.4505 18.8271C15.7446 18.4002 16.1653 18.0556 16.6651 17.8321L28.6651 12.4321C29.0799 12.2466 29.5368 12.15 30.0001 12.15C30.4633 12.15 30.9202 12.2466 31.3351 12.4321V12.4321Z" stroke="#5C5C5C" stroke-width="2" stroke-linecap="round" stroke-linejoin="round"/>
<path d="M15.75 18.9L30 24.975L44.25 18.9" stroke="#5C5C5C" stroke-width="2" stroke-linecap="round" stroke-linejoin="round"/>
<path d="M30 41.2007V25.3247" stroke="#5C5C5C" stroke-width="2" stroke-linecap="round" stroke-linejoin="round"/>
</svg>
