<?xml version="1.0" encoding="UTF-8" standalone="no"?>
<!DOCTYPE svg PUBLIC "-//W3C//DTD SVG 1.1//EN" "http://www.w3.org/Graphics/SVG/1.1/DTD/svg11.dtd">
<svg xmlns="http://www.w3.org/2000/svg" version="1.1" viewBox="0 0 500 500" width="500.0pt" height="500.0pt">
<path d="M 0.00 0.00 L 500.00 0.00 L 500.00 500.00 L 0.00 500.00 L 0.00 0.00 Z" fill="#ffffff" />
<path d="M 2.87 156.64 C 14.93 156.40 27.07 156.41 39.13 156.60 C 41.84 156.44 43.69 159.67 42.11 161.89 C 41.31 163.47 38.50 163.20 37.01 163.35 C 27.07 163.33 17.16 163.32 7.22 163.31 C 7.06 174.20 7.59 185.22 7.00 196.08 C 6.80 199.44 2.30 199.53 0.89 196.94 C 0.19 193.40 0.54 189.60 0.48 186.00 C 0.63 176.95 0.27 167.87 0.65 158.83 C 1.35 158.06 2.08 157.34 2.87 156.64 Z" fill="#1fa9ff" />
<path d="M 128.00 156.46 C 137.66 156.51 147.33 156.52 157.00 156.45 C 159.01 156.63 161.76 156.13 163.02 158.09 C 163.76 159.87 163.59 162.10 163.66 163.99 C 163.59 172.99 163.58 182.00 163.66 191.00 C 163.61 193.01 163.73 195.22 163.16 197.16 C 161.97 199.20 158.98 199.31 157.60 197.42 C 156.81 195.47 156.92 193.07 156.86 191.00 C 156.92 181.77 156.89 172.54 156.91 163.31 C 147.60 163.35 138.30 163.28 129.00 163.37 C 126.94 163.29 124.33 163.51 122.49 162.48 C 121.32 160.99 121.16 158.98 122.61 157.62 C 123.83 156.26 126.32 156.60 128.00 156.46 Z" fill="#1fa9ff" />
<path d="M 41.00 172.50 C 68.66 172.51 96.35 172.48 124.00 172.51 C 130.55 172.55 136.71 173.71 141.47 178.52 C 146.33 183.57 147.07 190.31 147.18 196.99 C 147.23 224.33 147.36 251.70 147.43 279.00 C 147.35 286.56 145.28 294.29 138.58 298.60 C 131.58 302.95 121.91 302.12 114.00 302.21 C 91.67 302.26 69.33 302.29 47.00 302.37 C 40.73 302.39 34.85 302.62 28.97 300.05 C 24.41 298.15 20.87 294.70 18.91 290.16 C 16.99 285.88 17.03 281.61 16.98 277.00 C 17.13 249.67 17.13 222.30 17.26 194.97 C 17.36 188.53 19.02 181.47 24.24 177.24 C 29.08 173.22 34.93 172.58 41.00 172.50 Z" fill="#1fa9ff" />
<path d="M 40.04 185.51 C 40.99 185.51 41.81 185.81 42.49 186.41 C 45.41 188.84 47.87 191.85 50.45 194.64 C 50.40 201.16 50.44 207.67 50.38 214.19 C 53.19 214.41 55.99 214.10 58.79 214.32 C 58.80 207.92 58.77 201.51 58.82 195.11 C 62.13 192.02 65.07 187.98 68.98 185.69 C 72.57 187.21 76.91 191.63 79.03 194.88 C 79.72 201.27 79.10 207.83 79.30 214.26 C 81.67 214.27 84.04 214.26 86.41 214.27 C 86.52 208.50 86.23 202.72 86.47 196.97 C 86.36 194.64 88.76 192.79 90.17 191.18 C 92.20 189.30 94.34 186.57 97.02 185.68 C 100.36 187.61 104.07 191.41 106.27 194.58 C 107.24 200.95 106.40 207.79 106.67 214.27 C 109.05 214.27 111.42 214.27 113.79 214.27 C 113.80 207.80 113.80 201.34 113.79 194.88 C 116.58 192.00 119.22 188.77 122.45 186.39 C 123.88 185.28 124.81 186.00 126.05 186.91 C 128.79 189.16 131.23 191.81 133.81 194.26 C 133.91 222.17 133.79 250.09 133.86 278.00 C 133.82 281.38 134.19 285.06 133.38 288.36 C 130.89 289.45 127.68 289.11 125.00 289.21 C 121.55 289.15 117.87 289.41 114.50 288.60 C 113.38 285.21 113.82 281.18 113.78 277.63 C 111.29 277.63 108.79 277.63 106.30 277.63 C 106.19 281.14 106.86 285.29 105.56 288.58 C 101.88 289.52 97.78 289.11 94.00 289.20 C 91.71 289.09 88.73 289.45 86.71 288.23 C 85.85 284.88 86.27 281.09 86.21 277.64 C 83.76 277.64 81.31 277.64 78.86 277.65 C 78.81 281.13 79.22 284.95 78.36 288.35 C 76.20 289.36 73.36 289.12 71.00 289.20 C 67.22 289.13 63.20 289.47 59.51 288.60 C 58.37 285.22 58.82 281.18 58.78 277.63 C 56.00 277.63 53.21 277.63 50.43 277.64 C 50.29 281.11 51.05 285.38 49.60 288.59 C 45.57 289.55 41.13 289.10 37.00 289.20 C 35.00 289.08 32.45 289.39 30.79 288.09 C 30.23 284.13 30.53 280.00 30.49 276.00 C 30.50 250.05 30.52 223.92 30.47 198.00 C 30.61 196.36 30.36 194.91 31.55 193.61 C 34.07 190.68 36.87 187.73 40.04 185.51 Z" fill="#ffffff" />
<path d="M 40.66 192.48 C 41.98 193.85 43.30 195.23 44.63 196.60 C 44.70 225.54 44.69 254.47 44.64 283.41 C 41.81 283.40 38.98 283.39 36.15 283.38 C 36.14 254.57 36.16 225.77 36.14 196.97 C 37.64 195.46 39.15 193.97 40.66 192.48 Z" fill="#1fa9ff" />
<path d="M 69.19 192.58 C 70.70 193.81 72.11 195.12 73.55 196.43 C 73.53 225.42 73.56 254.40 73.53 283.39 C 70.54 283.39 67.54 283.39 64.55 283.38 C 64.53 254.60 64.56 225.81 64.54 197.03 C 66.06 195.52 67.59 194.02 69.19 192.58 Z" fill="#1fa9ff" />
<path d="M 96.54 192.46 C 97.87 193.79 99.21 195.12 100.54 196.45 C 100.54 225.43 100.56 254.41 100.53 283.39 C 97.76 283.39 94.99 283.39 92.22 283.38 C 92.21 254.60 92.24 225.82 92.20 197.04 C 93.64 195.50 95.09 193.98 96.54 192.46 Z" fill="#1fa9ff" />
<path d="M 124.21 192.57 C 125.61 193.92 126.93 195.35 128.26 196.78 C 128.18 225.64 128.25 254.51 128.22 283.37 C 125.33 283.39 122.44 283.39 119.55 283.39 C 119.53 254.60 119.55 225.82 119.54 197.04 C 120.45 196.13 121.36 195.22 122.29 194.33 C 122.92 193.74 123.57 193.15 124.21 192.57 Z" fill="#1fa9ff" />
<path d="M 294.32 214.25 C 297.58 212.21 302.91 213.60 302.81 218.05 C 303.00 222.59 297.45 224.07 294.21 221.86 C 291.73 220.09 291.79 215.95 294.32 214.25 Z" fill="#1fa9ff" />
<path d="M 276.53 215.56 C 279.62 215.23 282.78 215.37 285.89 215.39 C 286.01 225.69 285.62 236.02 286.14 246.31 C 286.96 246.61 287.78 246.90 288.60 247.21 C 288.90 249.55 289.25 251.88 289.53 254.22 C 286.06 254.19 281.37 255.15 278.79 252.21 C 275.99 249.17 276.42 243.83 276.33 240.00 C 276.53 231.86 276.07 223.67 276.53 215.56 Z" fill="#1fa9ff" />
<path d="M 185.27 217.91 C 192.15 218.15 200.15 217.00 206.70 219.30 C 212.02 221.24 213.85 226.75 212.92 231.99 C 212.41 235.70 210.00 237.74 207.52 240.24 C 210.02 244.74 212.56 249.21 215.03 253.72 C 211.49 253.75 207.95 253.75 204.42 253.73 C 202.39 249.73 200.35 245.74 198.27 241.77 C 197.09 241.79 195.90 241.80 194.71 241.81 C 194.71 245.79 194.71 249.77 194.71 253.74 C 191.56 253.75 188.41 253.74 185.26 253.75 C 185.26 241.80 185.23 229.86 185.27 217.91 Z" fill="#1fa9ff" />
<path d="M 361.37 217.91 C 369.15 217.89 376.93 217.89 384.71 217.90 C 384.72 220.55 384.72 223.20 384.73 225.85 C 380.09 225.86 375.46 225.85 370.83 225.87 C 370.82 228.16 370.82 230.44 370.82 232.73 C 374.79 232.76 378.76 232.76 382.73 232.77 C 382.73 235.43 382.73 238.09 382.73 240.75 C 378.76 240.75 374.79 240.76 370.83 240.77 C 370.82 245.09 370.82 249.42 370.82 253.75 C 367.67 253.74 364.51 253.75 361.35 253.74 C 361.36 241.80 361.33 229.85 361.37 217.91 Z" fill="#1fa9ff" />
<path d="M 311.58 219.12 C 314.19 219.12 316.80 219.12 319.41 219.12 C 319.44 221.51 319.41 223.91 319.44 226.30 C 321.53 226.30 323.61 226.30 325.70 226.31 C 325.70 228.76 325.70 231.21 325.70 233.67 C 323.61 233.67 321.53 233.67 319.44 233.67 C 319.41 236.78 319.29 239.91 319.46 243.01 C 319.56 244.27 319.64 245.41 320.58 246.35 C 322.10 246.73 323.67 246.92 325.22 247.15 C 325.69 249.31 326.17 251.47 326.63 253.64 C 321.68 254.35 315.47 255.71 312.02 250.97 C 308.91 246.42 310.00 238.99 309.83 233.70 C 308.65 233.68 307.46 233.66 306.27 233.64 C 306.28 231.26 306.28 228.87 306.29 226.48 C 307.66 226.41 309.03 226.34 310.40 226.28 C 310.80 223.89 311.18 221.50 311.58 219.12 Z" fill="#1fa9ff" />
<path d="M 50.42 220.02 C 53.21 220.01 56.00 220.02 58.80 220.01 C 58.80 227.72 58.80 235.43 58.79 243.14 C 56.00 243.14 53.21 243.14 50.42 243.13 C 50.42 235.43 50.42 227.72 50.42 220.02 Z" fill="#1fa9ff" />
<path d="M 78.85 220.05 C 81.30 220.03 83.76 220.03 86.22 220.03 C 86.22 227.73 86.23 235.43 86.22 243.14 C 83.76 243.14 81.31 243.14 78.85 243.13 C 78.84 235.44 78.84 227.74 78.85 220.05 Z" fill="#1fa9ff" />
<path d="M 106.67 220.01 C 109.05 220.01 111.42 220.01 113.80 220.01 C 113.80 227.72 113.80 235.43 113.79 243.14 C 111.42 243.14 109.05 243.14 106.68 243.14 C 106.66 235.43 106.67 227.72 106.67 220.01 Z" fill="#1fa9ff" />
<path d="M 194.72 225.23 C 197.36 225.51 200.92 225.27 203.14 226.87 C 204.19 229.09 204.11 232.38 201.60 233.57 C 199.45 234.32 196.97 234.28 194.72 234.49 C 194.71 231.40 194.71 228.32 194.72 225.23 Z" fill="#ffffff" />
<path d="M 239.48 229.51 C 242.63 233.50 242.33 237.98 242.29 242.78 C 236.76 242.84 231.30 242.74 225.77 242.95 C 226.85 244.17 227.88 245.77 229.31 246.62 C 232.19 248.05 235.48 246.62 238.39 245.93 C 239.44 247.75 240.47 249.59 241.51 251.41 C 235.93 254.26 230.14 255.78 224.23 252.79 C 215.30 248.44 214.74 234.15 222.41 228.38 C 227.23 224.40 235.43 224.44 239.48 229.51 Z" fill="#1fa9ff" />
<path d="M 263.70 226.35 C 267.52 227.66 269.63 231.06 270.05 234.95 C 270.70 241.16 270.23 247.51 270.34 253.75 C 267.75 253.74 265.16 253.75 262.57 253.75 C 262.37 252.94 262.17 252.13 261.97 251.32 C 258.67 253.21 255.92 255.14 251.88 254.19 C 245.83 252.75 243.69 244.44 248.16 240.16 C 251.45 237.01 257.42 236.61 261.63 235.15 C 260.19 234.53 258.61 233.13 256.98 233.14 C 254.60 233.24 252.12 234.37 249.88 235.17 C 248.79 233.12 247.70 231.06 246.61 229.01 C 252.11 226.45 257.60 224.28 263.70 226.35 Z" fill="#1fa9ff" />
<path d="M 292.78 226.32 C 295.98 226.30 299.18 226.31 302.38 226.29 C 302.42 235.44 302.40 244.60 302.39 253.75 C 299.19 253.74 295.98 253.75 292.78 253.74 C 292.77 244.60 292.77 235.46 292.78 226.32 Z" fill="#1fa9ff" />
<path d="M 328.36 226.42 C 331.46 226.20 334.60 226.28 337.71 226.32 C 339.61 232.33 341.50 238.32 343.01 244.44 C 344.50 238.38 346.01 232.33 347.61 226.30 C 350.63 226.31 353.65 226.30 356.68 226.32 C 353.63 235.12 350.70 243.97 347.64 252.77 C 346.28 256.39 344.34 260.84 340.79 262.78 C 337.47 264.61 334.12 264.03 330.53 263.76 C 331.04 261.49 331.54 259.22 332.04 256.95 C 333.84 256.52 336.93 256.78 337.88 254.86 C 338.96 253.45 338.07 251.71 337.63 250.23 C 334.65 242.27 331.11 234.46 328.36 226.42 Z" fill="#1fa9ff" />
<path d="M 410.17 229.85 C 413.08 233.82 412.76 238.12 412.69 242.78 C 407.19 242.86 401.66 242.72 396.17 242.95 C 397.63 244.53 398.75 246.58 401.00 247.07 C 403.49 247.66 406.47 246.50 408.91 245.90 C 409.91 247.75 410.91 249.61 411.90 251.46 C 406.21 254.30 400.33 255.80 394.37 252.65 C 385.33 247.92 385.23 233.07 393.70 227.72 C 398.72 224.34 406.43 224.76 410.17 229.85 Z" fill="#1fa9ff" />
<path d="M 417.79 226.32 C 420.38 226.31 422.96 226.30 425.55 226.28 C 425.79 227.28 426.03 228.29 426.28 229.29 C 428.60 227.81 431.16 225.89 433.95 225.59 C 436.44 225.31 439.41 225.90 441.14 227.85 C 443.36 230.36 443.67 233.76 443.75 236.96 C 443.81 242.55 443.70 248.15 443.74 253.75 C 440.58 253.74 437.42 253.75 434.27 253.74 C 434.14 246.65 434.85 240.22 433.44 233.27 C 431.43 233.84 429.43 234.43 427.43 235.05 C 427.39 241.28 427.43 247.51 427.40 253.75 C 424.20 253.74 420.99 253.75 417.79 253.74 C 417.78 244.60 417.78 235.46 417.79 226.32 Z" fill="#1fa9ff" />
<path d="M 462.00 225.58 C 465.56 225.19 468.43 226.69 471.59 228.02 C 470.22 230.00 468.79 231.95 467.35 233.88 C 464.58 233.67 462.03 232.39 459.89 234.89 C 457.31 237.89 457.67 244.46 461.53 246.36 C 463.43 247.39 466.26 245.90 468.18 245.45 C 469.39 247.47 470.59 249.49 471.78 251.51 C 465.83 255.13 458.49 255.80 452.97 251.03 C 448.46 247.04 447.49 239.85 449.49 234.40 C 451.51 229.20 456.55 226.04 462.00 225.58 Z" fill="#1fa9ff" />
<path d="M 494.90 229.10 C 498.34 233.09 498.15 237.82 498.01 242.79 C 492.52 242.86 487.01 242.72 481.53 242.95 C 482.92 244.43 483.92 246.46 486.03 246.99 C 488.55 247.77 491.70 246.52 494.19 245.91 C 495.21 247.73 496.23 249.54 497.24 251.37 C 491.58 254.43 485.43 255.80 479.49 252.53 C 471.15 247.91 470.61 234.67 477.72 228.72 C 482.43 224.56 490.55 224.27 494.90 229.10 Z" fill="#1fa9ff" />
<path d="M 230.97 232.74 C 233.21 232.69 233.77 235.19 234.86 236.67 C 231.77 236.74 228.66 236.75 225.57 236.55 C 227.12 234.93 228.35 232.40 230.97 232.74 Z" fill="#ffffff" />
<path d="M 401.03 232.73 C 403.48 232.36 404.12 235.08 405.38 236.60 C 402.26 236.75 399.13 236.72 396.01 236.59 C 397.52 234.98 398.47 232.62 401.03 232.73 Z" fill="#ffffff" />
<path d="M 486.97 232.77 C 488.71 232.58 489.75 235.49 490.71 236.61 C 487.57 236.73 484.44 236.73 481.30 236.58 C 483.05 234.73 483.97 232.42 486.97 232.77 Z" fill="#ffffff" />
<path d="M 261.02 241.24 C 260.50 243.16 261.25 246.10 258.82 246.81 C 256.85 247.83 255.34 247.01 254.63 245.03 C 255.99 242.34 258.47 242.26 261.02 241.24 Z" fill="#ffffff" />
<path d="M 50.42 248.89 C 53.21 248.88 56.00 248.88 58.79 248.88 C 58.80 256.55 58.80 264.21 58.79 271.88 C 56.00 271.88 53.21 271.88 50.42 271.88 C 50.42 264.21 50.41 256.55 50.42 248.89 Z" fill="#1fa9ff" />
<path d="M 78.85 248.88 C 81.30 248.88 83.76 248.88 86.21 248.88 C 86.23 256.54 86.22 264.20 86.22 271.87 C 83.76 271.86 81.30 271.87 78.85 271.85 C 78.84 264.19 78.84 256.54 78.85 248.88 Z" fill="#1fa9ff" />
<path d="M 106.68 248.88 C 109.05 248.88 111.42 248.88 113.79 248.88 C 113.80 256.55 113.80 264.21 113.79 271.88 C 111.42 271.88 109.05 271.88 106.67 271.88 C 106.67 264.21 106.66 256.55 106.68 248.88 Z" fill="#1fa9ff" />
<path d="M 2.34 276.33 C 3.74 276.17 5.14 276.23 6.54 276.31 C 7.55 281.27 7.23 285.98 7.24 291.00 C 7.22 297.78 7.24 304.55 7.23 311.33 C 17.82 311.41 28.44 311.16 39.02 311.40 C 41.50 311.33 43.07 313.12 42.57 315.57 C 42.09 318.02 38.99 318.00 37.04 318.14 C 28.03 318.24 19.01 318.05 10.00 318.19 C 7.54 318.15 4.80 318.32 2.44 317.54 C 0.21 316.52 0.66 314.05 0.47 312.01 C 0.48 302.34 0.54 292.67 0.45 283.00 C 0.65 280.61 0.00 277.83 2.34 276.33 Z" fill="#1fa9ff" />
<path d="M 162.48 276.49 C 163.85 278.25 163.56 280.88 163.66 282.99 C 163.58 292.33 163.59 301.67 163.66 311.01 C 163.54 313.05 163.89 315.80 162.39 317.41 C 160.02 317.99 157.42 317.87 155.00 317.89 C 145.65 317.78 136.31 317.90 126.96 317.87 C 125.09 317.59 122.54 318.24 121.85 315.93 C 121.14 314.06 121.71 313.22 122.96 311.87 C 124.83 311.22 127.04 311.32 128.99 311.27 C 138.30 311.35 147.60 311.31 156.90 311.32 C 156.89 302.55 156.94 293.78 156.85 285.00 C 156.90 282.36 156.76 279.26 157.75 276.78 C 159.38 276.04 160.77 275.91 162.48 276.49 Z" fill="#1fa9ff" />
</svg>