<svg width="24" height="24" viewBox="0 0 24 24" fill="none" xmlns="http://www.w3.org/2000/svg">
<g clip-path="url(#clip0_1801_38772)">
<path d="M22.5002 3.97601H19.4142C19.2165 3.97606 19.0232 4.03473 18.8588 4.14461C18.6943 4.2545 18.5662 4.41066 18.4905 4.59336C18.4149 4.77606 18.3951 4.97709 18.4336 5.17104C18.4722 5.365 18.5674 5.54316 18.7072 5.68301L19.7932 6.76901L16.2072 10.354C16.0167 10.5361 15.7633 10.6377 15.4997 10.6377C15.2362 10.6377 14.9827 10.5361 14.7922 10.354L14.6222 10.183C14.0508 9.63708 13.291 9.33244 12.5007 9.33244C11.7104 9.33244 10.9506 9.63708 10.3792 10.183L5.27921 15.283C5.09131 15.4715 4.98595 15.7268 4.98633 15.9929C4.9867 16.259 5.09278 16.5141 5.28121 16.702C5.46965 16.8899 5.72501 16.9953 5.99113 16.9949C6.25724 16.9945 6.51231 16.8885 6.70021 16.7L11.8002 11.6C11.9906 11.4177 12.2441 11.3159 12.5077 11.3159C12.7713 11.3159 13.0248 11.4177 13.2152 11.6L13.3852 11.771C13.9568 12.3165 14.7166 12.6208 15.5067 12.6208C16.2968 12.6208 17.0566 12.3165 17.6282 11.771L21.2142 8.18501L22.3002 9.27101C22.4405 9.40856 22.6183 9.50172 22.8112 9.53886C23.0042 9.576 23.2038 9.55547 23.3852 9.47983C23.5665 9.4042 23.7216 9.27681 23.8309 9.11358C23.9403 8.95035 23.9992 8.75851 24.0002 8.56201V5.47601C24.0002 5.07819 23.8422 4.69666 23.5609 4.41535C23.2796 4.13405 22.898 3.97601 22.5002 3.97601Z" fill="#374957"/>
<path d="M23 21.976H5C4.20435 21.976 3.44129 21.6599 2.87868 21.0973C2.31607 20.5347 2 19.7716 2 18.976V1C2 0.734784 1.89464 0.48043 1.70711 0.292893C1.51957 0.105357 1.26522 0 1 0C0.734784 0 0.48043 0.105357 0.292893 0.292893C0.105357 0.48043 0 0.734784 0 1L0 18.976C0.00158786 20.3016 0.528882 21.5724 1.46622 22.5098C2.40356 23.4471 3.6744 23.9744 5 23.976H23C23.2652 23.976 23.5196 23.8706 23.7071 23.6831C23.8946 23.4956 24 23.2412 24 22.976C24 22.7108 23.8946 22.4564 23.7071 22.2689C23.5196 22.0814 23.2652 21.976 23 21.976Z" fill="#374957"/>
</g>
<defs>
<clipPath id="clip0_1801_38772">
<rect width="24" height="24" fill="white"/>
</clipPath>
</defs>
</svg>
