<svg width="35" height="44" viewBox="0 0 35 44" fill="none" xmlns="http://www.w3.org/2000/svg">
<g clip-path="url(#clip0_2421_13344)">
<path d="M14.3551 38.2928H30.3353C33.4501 38.2928 35 36.6864 35 33.5043V19.613H24.1057C22.1796 19.613 21.2618 18.6797 21.2618 16.7214V5.49219H14.3551C11.2553 5.49219 9.69043 7.11385 9.69043 10.296V33.5043C9.69043 36.7017 11.2403 38.2928 14.3551 38.2928ZM24.1509 17.517H34.8194C34.7292 16.8897 34.2927 16.2778 33.5704 15.5282L25.2794 6.94557C24.5722 6.21123 23.9552 5.76756 23.3233 5.66047V16.6909C23.3233 17.2417 23.5941 17.517 24.1509 17.517Z" fill="black" fill-opacity="0.85"/>
<path d="M9.69047 43.2631C14.9871 43.2631 19.396 38.7959 19.396 33.4107C19.396 27.995 15.0172 23.543 9.69047 23.543C4.37877 23.543 0 27.995 0 33.4107C0 38.8418 4.36372 43.2631 9.69047 43.2631Z" fill="white"/>
<path d="M9.69091 41.1841C13.8439 41.1841 17.3349 37.6502 17.3349 33.4124C17.3349 29.1441 13.8891 25.6406 9.69091 25.6406C5.50775 25.6406 2.04688 29.1441 2.04688 33.4124C2.04688 37.6807 5.50775 41.1841 9.69091 41.1841Z" fill="black" fill-opacity="0.85"/>
<path d="M9.69032 38.277C9.13357 38.277 8.77243 37.8945 8.77243 37.3437V34.3451H5.82317C5.28146 34.3451 4.90527 33.978 4.90527 33.4119C4.90527 32.8459 5.28146 32.4634 5.82317 32.4634H8.77243V29.4802C8.77243 28.9294 9.13357 28.5469 9.69032 28.5469C10.2621 28.5469 10.6233 28.9294 10.6233 29.4802V32.4634H13.5575C14.1142 32.4634 14.4753 32.8459 14.4753 33.4119C14.4753 33.978 14.1142 34.3451 13.5575 34.3451H10.6233V37.3437C10.6233 37.8945 10.2621 38.277 9.69032 38.277Z" fill="white"/>
</g>
<defs>
<clipPath id="clip0_2421_13344">
<rect width="35" height="42.7296" fill="white" transform="translate(0 0.535156)"/>
</clipPath>
</defs>
</svg>
