<svg width="36" height="25" viewBox="0 0 36 25" fill="none" xmlns="http://www.w3.org/2000/svg">
<rect x="0.5" y="0.5" width="35" height="24" rx="5.5" fill="#1F72CD" stroke="#D9D9D9"/>
<path fill-rule="evenodd" clip-rule="evenodd" d="M6.45417 8.85547L3.08594 16.4042H7.11819L7.61807 15.2006H8.76069L9.26057 16.4042H13.6989V15.4856L14.0944 16.4042H16.3903L16.7858 15.4661V16.4042H26.0164L27.1388 15.2318L28.1898 16.4042L32.9308 16.4139L29.5519 12.6509L32.9308 8.85547H28.2633L27.1707 10.0061L26.1528 8.85547H16.1111L15.2489 10.8039L14.3663 8.85547H10.3425V9.74282L9.89489 8.85547H6.45417ZM20.2382 9.9274H25.5389L27.1601 11.7009L28.8336 9.9274H30.4548L27.9915 12.6498L30.4548 15.3409H28.76L27.1388 13.5468L25.4568 15.3409H20.2382V9.9274ZM21.5472 12.0377V11.0489V11.048H24.8546L26.2978 12.6293L24.7907 14.2193H21.5472V13.1398H24.4389V12.0377H21.5472ZM7.23439 9.9274H9.1999L11.434 15.0462V9.9274H13.5872L15.3128 13.5976L16.9032 9.9274H19.0455V15.3441H17.7419L17.7313 11.0996L15.8308 15.3441H14.6647L12.7535 11.0996V15.3441H10.0718L9.56335 14.1297H6.81658L6.30921 15.343H4.87235L7.23439 9.9274ZM7.28559 13.0071L8.19054 10.8439L9.09444 13.0071H7.28559Z" fill="white"/>
</svg>
