<svg width="36" height="25" viewBox="0 0 36 25" fill="none" xmlns="http://www.w3.org/2000/svg">
<rect x="0.5" y="0.5" width="35" height="24" rx="5.5" fill="white" stroke="#D9D9D9"/>
<path d="M15.1553 24.4779L35.4696 18.4883V19.4779C35.4696 22.2393 33.231 24.4779 30.4696 24.4779H15.1553Z" fill="#FD6020"/>
<path fill-rule="evenodd" clip-rule="evenodd" d="M31.6139 10.01C32.7315 10.01 33.3462 10.5137 33.3462 11.4651C33.4021 12.1927 32.8992 12.8083 32.2286 12.9202L33.7374 14.9909H32.5639L31.2787 12.9762H31.1669V14.9909H30.2169V10.01H31.6139ZM31.1669 12.3046H31.4463C32.061 12.3046 32.3404 12.0248 32.3404 11.5211C32.3404 11.0733 32.061 10.7935 31.4463 10.7935H31.1669V12.3046ZM26.92 14.9909H29.6023V14.1515H27.87V12.8083H29.5464V11.9688H27.87V10.8495H29.6023V10.01H26.92V14.9909ZM24.126 13.3679L22.8408 10.01H21.8349L23.9025 15.1029H24.4054L26.473 10.01H25.4671L24.126 13.3679ZM12.7824 12.5284C12.7824 13.9276 13.9 15.1029 15.297 15.1029C15.744 15.1029 16.1352 14.9909 16.5263 14.823V13.7037C16.2469 14.0395 15.8558 14.2634 15.4087 14.2634C14.5147 14.2634 13.7882 13.5918 13.7882 12.6963V12.5844C13.7323 11.689 14.4588 10.9054 15.3529 10.8495C15.7999 10.8495 16.2469 11.0733 16.5263 11.4091V10.2898C16.1911 10.066 15.744 10.01 15.3529 10.01C13.9 9.89807 12.7824 11.0733 12.7824 12.5284ZM11.0501 11.9128C10.4913 11.689 10.3237 11.577 10.3237 11.2972C10.3795 10.9614 10.6589 10.6816 10.9942 10.7375C11.2736 10.7375 11.553 10.9054 11.7765 11.1293L12.2795 10.4577C11.8883 10.1219 11.3854 9.89807 10.8825 9.89807C10.1001 9.8421 9.42957 10.4577 9.37369 11.2412V11.2972C9.37369 11.9688 9.65309 12.3606 10.5472 12.6404C10.7707 12.6963 10.9942 12.8083 11.2177 12.9202C11.3854 13.0321 11.4971 13.2 11.4971 13.4239C11.4971 13.8157 11.1619 14.1514 10.8266 14.1514H10.7707C10.3237 14.1514 9.93249 13.8716 9.76485 13.4799L9.15017 14.0955C9.48545 14.7111 10.156 15.0469 10.8266 15.0469C11.7207 15.1029 12.4471 14.4313 12.503 13.5358V13.3679C12.4471 12.6963 12.1677 12.3606 11.0501 11.9128ZM7.80905 14.9909H8.75901V10.01H7.80905V14.9909ZM3.39453 10.01H4.79153H5.07093C6.41205 10.066 7.47377 11.1853 7.41789 12.5285C7.41789 13.256 7.08261 13.9276 6.52381 14.4313C6.02089 14.823 5.40621 15.0469 4.79153 14.9909H3.39453V10.01ZM4.62389 14.1515C5.07093 14.2074 5.57385 14.0395 5.90913 13.7597C6.24441 13.4239 6.41205 12.9762 6.41205 12.4725C6.41205 12.0248 6.24441 11.577 5.90913 11.2412C5.57385 10.9614 5.07093 10.7935 4.62389 10.8495H4.34449V14.1515H4.62389Z" fill="black"/>
<path fill-rule="evenodd" clip-rule="evenodd" d="M19.3761 9.89453C17.9791 9.89453 16.8057 11.0138 16.8057 12.4689C16.8057 13.8681 17.9233 15.0434 19.3761 15.0993C20.829 15.1553 21.9466 13.98 22.0025 12.5249C21.9466 11.0698 20.829 9.89453 19.3761 9.89453V9.89453Z" fill="#FD6020"/>
</svg>
