<svg width="36" height="25" viewBox="0 0 36 25" fill="none" xmlns="http://www.w3.org/2000/svg">
<rect x="0.5" y="0.5" width="35" height="24" rx="5.5" fill="white" stroke="#D9D9D9"/>
<path fill-rule="evenodd" clip-rule="evenodd" d="M18.257 17.8705C17.0314 18.9416 15.4415 19.5883 13.7043 19.5883C9.82794 19.5883 6.68555 16.3689 6.68555 12.3976C6.68555 8.42638 9.82794 5.20703 13.7043 5.20703C15.4415 5.20703 17.0314 5.85365 18.257 6.92477C19.4826 5.85365 21.0724 5.20703 22.8097 5.20703C26.686 5.20703 29.8284 8.42638 29.8284 12.3976C29.8284 16.3689 26.686 19.5883 22.8097 19.5883C21.0724 19.5883 19.4826 18.9416 18.257 17.8705Z" fill="#ED0006"/>
<path fill-rule="evenodd" clip-rule="evenodd" d="M18.2568 17.8705C19.766 16.5516 20.7229 14.5891 20.7229 12.3976C20.7229 10.2062 19.766 8.24366 18.2568 6.92477C19.4825 5.85365 21.0723 5.20703 22.8095 5.20703C26.6859 5.20703 29.8283 8.42638 29.8283 12.3976C29.8283 16.3689 26.6859 19.5883 22.8095 19.5883C21.0723 19.5883 19.4825 18.9416 18.2568 17.8705Z" fill="#F9A000"/>
<path fill-rule="evenodd" clip-rule="evenodd" d="M18.257 6.92578C19.7661 8.24467 20.723 10.2072 20.723 12.3986C20.723 14.5901 19.7661 16.5526 18.257 17.8715C16.7479 16.5526 15.791 14.5901 15.791 12.3986C15.791 10.2072 16.7479 8.24467 18.257 6.92578Z" fill="#FF5E00"/>
</svg>
