<svg width="36" height="25" viewBox="0 0 36 25" fill="none" xmlns="http://www.w3.org/2000/svg">
<rect x="0.5" y="0.5" width="35" height="24" rx="5.5" fill="white" stroke="#D9D9D9"/>
<path fill-rule="evenodd" clip-rule="evenodd" d="M10.9292 16.937H8.74827L7.11286 10.6184C7.03524 10.3277 6.87042 10.0707 6.62798 9.94964C6.02294 9.64529 5.35623 9.40308 4.62891 9.28092V9.03765H8.14217C8.62705 9.03765 8.99071 9.40308 9.05132 9.82748L9.89986 14.3853L12.0797 9.03765H14.2L10.9292 16.937ZM15.4122 16.937H13.3525L15.0485 9.03765H17.1082L15.4122 16.937ZM19.7729 11.226C19.8335 10.8006 20.1972 10.5573 20.6215 10.5573C21.2882 10.4962 22.0144 10.6184 22.6206 10.9217L22.9842 9.2209C22.3781 8.97763 21.7114 8.85547 21.1064 8.85547C19.1073 8.85547 17.6526 9.94964 17.6526 11.4682C17.6526 12.6235 18.683 13.2301 19.4103 13.5955C20.1972 13.9599 20.5003 14.2031 20.4396 14.5675C20.4396 15.1141 19.8335 15.3573 19.2285 15.3573C18.5012 15.3573 17.7739 15.1751 17.1082 14.8708L16.7446 16.5726C17.4719 16.8759 18.2587 16.9981 18.9861 16.9981C21.2276 17.0581 22.6206 15.965 22.6206 14.3242C22.6206 12.258 19.7729 12.1369 19.7729 11.226ZM29.8289 16.937L28.1935 9.03765H26.4369C26.0732 9.03765 25.7095 9.28092 25.5883 9.64529L22.5599 16.937H24.6802L25.1034 15.7828H27.7086L27.9511 16.937H29.8289ZM26.7399 11.1649L27.345 14.142H25.6489L26.7399 11.1649Z" fill="#172B85"/>
</svg>
